<svg width="259" height="259" viewBox="0 0 259 259" fill="none" xmlns="http://www.w3.org/2000/svg">
<g clip-path="url(#clip0_90_85)">
<path d="M68.9837 157.454C68.2863 157.454 67.5819 157.441 66.8904 157.415L66.9062 156.817C67.899 156.854 68.9122 156.864 69.9097 156.848L69.9166 157.447C69.6061 157.452 69.2951 157.454 68.9837 157.454ZM72.941 157.316L72.9116 156.718C73.9059 156.648 74.913 156.55 75.9048 156.426L75.9574 157.021C74.9579 157.146 73.9432 157.245 72.941 157.316ZM63.8687 157.222C62.8661 157.131 61.8528 157.011 60.857 156.865L60.9184 156.271C61.9066 156.415 62.912 156.535 63.907 156.625L63.8687 157.222ZM78.959 156.564L78.8836 155.972C79.8715 155.794 80.8671 155.586 81.8418 155.356L81.9397 155.943C80.9574 156.175 79.9545 156.384 78.959 156.564ZM57.8627 156.345C56.8722 156.145 55.8723 155.915 54.891 155.662L54.9977 155.076C55.9715 155.328 56.9636 155.556 57.9466 155.755L57.8627 156.345ZM84.8939 155.159L84.7732 154.578C85.743 154.292 86.7181 153.977 87.6717 153.64L87.8146 154.214C86.8536 154.553 85.8711 154.871 84.8939 155.159ZM51.9492 154.816C50.9776 154.508 49.9998 154.169 49.0431 153.809L49.1945 153.238C50.144 153.596 51.1143 153.932 52.0783 154.237L51.9492 154.816ZM90.6954 153.109L90.5304 152.544C91.4715 152.154 92.4179 151.733 93.344 151.292L93.5306 151.848C92.5976 152.292 91.6438 152.717 90.6954 153.109H90.6954ZM46.1715 152.64C45.2279 152.227 44.2784 151.781 43.3496 151.316L43.5447 150.764C44.4664 151.226 45.4086 151.668 46.3451 152.078L46.1715 152.64ZM96.3076 150.435L96.0994 149.89C97.0032 149.401 97.9116 148.879 98.7994 148.338L99.0281 148.871C98.1335 149.416 97.2182 149.942 96.3076 150.435H96.3076ZM101.686 147.16L101.437 146.641C102.304 146.052 103.169 145.432 104.008 144.8L104.277 145.306C103.431 145.943 102.559 146.567 101.686 147.16H101.686ZM106.794 143.312L106.506 142.821C107.322 142.142 108.137 141.431 108.927 140.708L109.233 141.182C108.437 141.911 107.616 142.628 106.794 143.312ZM30.1789 142.469C29.3676 141.767 28.5571 141.031 27.7698 140.283L28.0835 139.815C28.8647 140.558 29.6691 141.288 30.4742 141.984L30.1789 142.469ZM111.589 138.923L111.265 138.465C112.025 137.7 112.782 136.904 113.515 136.097L113.856 136.537C113.118 137.35 112.355 138.152 111.589 138.923H111.589ZM25.4474 137.969C24.6918 137.181 23.9411 136.361 23.2162 135.532L23.5643 135.1C24.2837 135.923 25.0286 136.737 25.7785 137.519L25.4474 137.969ZM116.031 134.029L115.673 133.609C116.374 132.763 117.068 131.887 117.734 131.006L118.108 131.407C117.436 132.294 116.737 133.177 116.031 134.029ZM21.081 132.978C20.3878 132.11 19.7031 131.212 19.046 130.311L19.4257 129.919C20.0778 130.813 20.7572 131.704 21.4453 132.565L21.081 132.978ZM120.082 128.674L119.694 128.294C120.328 127.375 120.951 126.428 121.548 125.477L121.951 125.835C121.349 126.794 120.721 127.749 120.082 128.674L120.082 128.674ZM17.1154 127.537C16.4929 126.6 15.8799 125.633 15.2933 124.662L15.7013 124.312C16.2834 125.276 16.8917 126.236 17.5096 127.166L17.1154 127.537ZM123.709 122.898L123.293 122.562C123.854 121.579 124.403 120.567 124.925 119.554L125.353 119.868C124.827 120.888 124.274 121.908 123.709 122.898L123.709 122.898ZM13.5838 121.692C13.0361 120.692 12.5 119.663 11.9904 118.633L12.4233 118.329C12.9292 119.351 13.4612 120.372 14.0048 121.365L13.5838 121.692ZM126.88 116.75L126.44 116.46C126.922 115.42 127.391 114.352 127.834 113.285L128.284 113.551C127.839 114.625 127.366 115.702 126.88 116.75ZM129.564 110.277L129.104 110.037C129.504 108.948 129.889 107.832 130.247 106.721L130.716 106.936C130.355 108.055 129.968 109.179 129.564 110.277ZM7.93981 108.986C7.55446 107.884 7.18543 106.757 6.84302 105.636L7.31551 105.431C7.65522 106.544 8.02143 107.662 8.40372 108.755L7.93981 108.986ZM131.738 103.533L131.261 103.345C131.574 102.219 131.87 101.068 132.14 99.9244L132.624 100.086C132.352 101.239 132.054 102.399 131.738 103.533ZM5.87472 102.221C5.57564 101.08 5.2946 99.9144 5.03946 98.7562L5.52569 98.6042C5.77888 99.7537 6.05783 100.91 6.35458 102.043L5.87472 102.221ZM133.376 96.5948L132.886 96.4591C133.112 95.3053 133.317 94.127 133.498 92.9574L133.992 93.0655C133.81 94.2445 133.603 95.4316 133.376 96.5948V96.5948ZM4.33945 95.2495C4.12983 94.0802 3.9401 92.8889 3.77565 91.7082L4.27146 91.61C4.4348 92.7819 4.62306 93.9641 4.83108 95.1244L4.33945 95.2495ZM134.472 89.507L133.973 89.4258C134.109 88.2532 134.223 87.0576 134.313 85.8719L134.814 85.9257C134.723 87.1208 134.608 88.3254 134.472 89.507V89.507ZM3.34881 88.1401C3.23026 86.955 3.13294 85.748 3.05942 84.5527L3.56088 84.5088C3.63365 85.6954 3.73036 86.893 3.84806 88.0694L3.34881 88.1401ZM135.018 82.3301L134.516 82.3032C134.561 81.117 134.584 79.9137 134.584 78.7272H135.086C135.086 79.9228 135.063 81.1351 135.018 82.3301ZM2.90712 80.9527C2.88994 80.2186 2.88123 79.4697 2.8811 78.7272C2.8811 78.2665 2.88442 77.8066 2.89104 77.3477L3.39373 77.3582C3.3871 77.8137 3.38378 78.27 3.38378 78.7272C3.38391 79.4641 3.39262 80.2075 3.40956 80.9363L2.90712 80.9527ZM3.51301 73.7841L3.01132 73.7467C3.07403 72.5505 3.16067 71.3423 3.26855 70.1556L3.76828 70.22C3.66114 71.3978 3.57535 72.5968 3.51301 73.7841H3.51301ZM134.259 70.1316C134.159 68.9513 134.02 68.3759 133.875 67.2007L134.372 67.1133C134.519 68.2974 134.645 69.2013 134.746 70.3904L134.259 70.1316ZM4.15964 66.6738L3.66285 66.5823C3.81687 65.3979 3.99581 64.2042 4.19474 63.0339L4.68737 63.1526C4.49002 64.314 4.31244 65.4987 4.15964 66.6738ZM133.367 63.6757C133.176 62.5079 132.959 61.3323 132.724 60.1817L133.213 60.0402C133.45 61.1995 133.667 62.3842 133.861 63.5608L133.367 63.6757ZM5.35032 59.6641L4.86274 59.5185C5.10684 58.359 5.3772 57.1898 5.66634 56.0433L6.14765 56.2155C5.86086 57.3532 5.59258 58.5135 5.35032 59.6641ZM131.947 56.7265C131.666 55.5866 131.36 54.4399 131.036 53.318L131.511 53.1233C131.838 54.2538 132.147 55.4096 132.429 56.5581L131.947 56.7265ZM7.08074 52.8051L6.60653 52.6066C6.94059 51.4748 7.30128 50.3377 7.67853 49.2267L8.14464 49.4512C7.77021 50.5536 7.41222 51.6821 7.08074 52.8051ZM129.995 49.9629C129.628 48.8611 129.235 47.7554 128.827 46.6763L129.286 46.4304C129.697 47.5179 130.093 48.6321 130.462 49.7422L129.995 49.9629ZM9.33692 46.1605L8.88013 45.9105C9.29997 44.8216 9.74682 43.7296 10.2083 42.665L10.655 42.9395C10.197 43.9961 9.75356 45.0797 9.33692 46.1605ZM127.534 43.4557C127.085 42.3988 126.608 41.3397 126.118 40.3082L126.555 40.0133C127.049 41.0528 127.529 42.1199 127.983 43.185L127.534 43.4557ZM12.0959 39.7949L11.6602 39.4962C12.1617 38.4591 12.6905 37.4211 13.2321 36.4111L13.6557 36.7332C13.1183 37.7356 12.5934 38.7658 12.0959 39.7949ZM124.581 37.24C124.05 36.2329 123.494 35.2296 122.928 34.2579L123.341 33.9168C123.911 34.8959 124.472 35.9068 125.007 36.9216L124.581 37.24ZM15.3314 33.7605L14.9205 33.4156C15.5 32.4368 16.1059 31.4611 16.7218 30.5157L17.1189 30.8826C16.5078 31.821 15.9064 32.7892 15.3314 33.7605ZM121.162 31.3681C120.556 30.4232 119.925 29.4838 119.286 28.5761L119.672 28.1916C120.315 29.1063 120.951 30.0527 121.561 31.0048L121.162 31.3681ZM19.0144 28.1056L18.6317 27.7174C19.282 26.8077 19.9599 25.9022 20.6463 25.0261L21.0137 25.4345C20.3326 26.304 19.6599 27.2028 19.0144 28.1056ZM117.306 25.888C116.631 25.0127 115.93 24.145 115.224 23.3096L115.579 22.8848C116.29 23.7269 116.996 24.6009 117.676 25.4829L117.306 25.888ZM23.1124 22.8755L22.7609 22.4475C23.4797 21.61 24.2236 20.7819 24.9716 19.9865L25.3064 20.4332C24.564 21.2225 23.8258 22.0442 23.1124 22.8755ZM113.047 20.846C112.307 20.0466 111.542 19.2582 110.776 18.5027L111.096 18.0414C111.869 18.8026 112.639 19.597 113.384 20.4025L113.047 20.846ZM27.5909 18.1124L27.2735 17.6482C28.051 16.8942 28.8544 16.1505 29.6618 15.4378L29.9612 15.9187C29.1599 16.6261 28.3625 17.3641 27.5909 18.1124ZM32.4121 13.8566L32.1316 13.3599C32.9637 12.6931 33.8203 12.0402 34.6778 11.4189L34.9389 11.9304C34.0881 12.547 33.2379 13.195 32.4121 13.8566ZM37.5364 10.1443L37.2951 9.61901C38.1754 9.04532 39.078 8.48872 39.9779 7.96444L40.1988 8.50232C39.3058 9.02252 38.4101 9.57486 37.5364 10.1443ZM98.2025 8.75723C97.308 8.22649 96.3918 7.71377 95.4792 7.23333L95.6824 6.6858C96.6021 7.16989 97.5255 7.68658 98.4268 8.22139L98.2025 8.75723ZM42.9206 7.0078L42.7208 6.4585C43.6407 5.98361 44.5818 5.52817 45.5177 5.10473L45.6961 5.66454C44.7673 6.08462 43.8335 6.53656 42.9206 7.0078ZM92.699 5.85997C91.7682 5.43011 90.8157 5.01996 89.8675 4.64111L90.0275 4.07341C90.9828 4.45533 91.9428 4.86853 92.8806 5.30191L92.699 5.85997ZM48.5276 4.472L48.371 3.90314C49.3263 3.53012 50.301 3.17889 51.2678 2.85953L51.4022 3.43629C50.4427 3.75332 49.4755 4.10177 48.5276 4.472ZM86.9987 3.58187C86.0399 3.25636 85.0621 2.95322 84.0923 2.68092L84.2077 2.09831C85.185 2.37266 86.1703 2.67813 87.1366 3.00598L86.9987 3.58187ZM54.314 2.55945L54.2021 1.97582C55.1814 1.70937 56.179 1.46659 57.1671 1.25436L57.2564 1.8434C56.2757 2.05417 55.2858 2.29504 54.314 2.55945ZM81.154 1.94074C80.1752 1.72194 79.1782 1.52724 78.1905 1.36208L78.2602 0.769243C79.2555 0.935722 80.2603 1.13187 81.2468 1.35229L81.154 1.94074ZM60.2235 1.2893L60.157 0.695874C61.1521 0.537725 62.1641 0.404715 63.1648 0.300942L63.2085 0.897287C62.2154 1.00047 61.2112 1.13231 60.2235 1.2893ZM75.2075 0.945813C74.2174 0.83473 73.2096 0.749079 72.2118 0.691635L72.2364 0.0935475C73.2415 0.151575 74.2569 0.237813 75.2546 0.349785L75.2075 0.945813ZM66.2059 0.667664L66.1848 0.0695761C67.1087 0.0236809 68.0502 0.000293356 68.9836 0L69.2112 0.000440204L69.2097 0.599126L68.9836 0.598686C68.0573 0.598961 67.1226 0.622202 66.2059 0.667657V0.667664Z" fill="#3F3D56"/>
<path d="M149.86 28.1998V222.234C149.858 224.545 149.085 226.761 147.713 228.395C146.34 230.029 144.479 230.947 142.538 230.948H76.3977C75.4362 230.95 74.4838 230.726 73.5951 230.289C72.7063 229.852 71.8988 229.21 71.2186 228.4C70.5385 227.591 69.9992 226.63 69.6315 225.571C69.2639 224.513 69.0752 223.379 69.0762 222.234V28.1998C69.0761 27.0547 69.2654 25.9208 69.6333 24.8628C70.0012 23.8048 70.5405 22.8435 71.2204 22.0337C71.9003 21.224 72.7075 20.5817 73.5958 20.1435C74.4841 19.7054 75.4362 19.4799 76.3977 19.48H86.2955V20.9917C86.2953 22.8958 86.9302 24.7221 88.0604 26.0688C89.1907 27.4155 90.7239 28.1723 92.3227 28.1729H125.962C127.249 28.1762 128.502 27.6849 129.536 26.772C129.745 26.5909 129.943 26.3929 130.129 26.1793C130.718 25.5097 131.187 24.7046 131.506 23.8128C131.826 22.9211 131.99 21.9613 131.989 20.9917V19.48H142.538C143.5 19.4796 144.452 19.7049 145.34 20.143C146.229 20.5811 147.036 21.2234 147.716 22.0332C148.396 22.843 148.935 23.8044 149.303 24.8625C149.671 25.9206 149.86 27.0546 149.86 28.1998Z" fill="#3F3D56"/>
<path d="M140.19 89.4275H78.7458V145.105H140.19V89.4275Z" fill="#7EB685"/>
<path d="M46.3901 80.0464C51.8607 80.1862 56.2125 84.9078 56.2125 84.9078C56.2125 84.9078 51.6947 89.4028 46.2241 89.263C40.7534 89.1232 36.4016 84.4017 36.4016 84.4017C36.4016 84.4017 40.9194 79.9066 46.3901 80.0464Z" fill="#7EB685"/>
<path d="M18.8865 57.8057C23.829 60.6022 29.4964 58.7058 29.4964 58.7058C29.4964 58.7058 27.1505 52.2754 22.2081 49.4789C17.2656 46.6824 11.5981 48.5787 11.5981 48.5787C11.5981 48.5787 13.944 55.0091 18.8865 57.8057Z" fill="#7EB685"/>
<path d="M19.3891 55.0268C24.8383 54.4337 29.608 58.5431 29.608 58.5431C29.608 58.5431 25.5428 63.6142 20.0936 64.2073C14.6444 64.8004 9.87476 60.6909 9.87476 60.6909C9.87476 60.6909 13.94 55.6199 19.3891 55.0268Z" fill="#3F3D56"/>
<path d="M39.3639 56.1504C38.8416 62.6375 42.2708 68.3364 42.2708 68.3364C42.2708 68.3364 46.5467 63.5175 47.069 57.0303C47.5913 50.5431 44.1622 44.8442 44.1622 44.8442C44.1622 44.8442 39.8863 49.6632 39.3639 56.1504Z" fill="#3F3D56"/>
<path d="M65.0269 95.936C62.1688 101.493 63.1522 108.406 63.1522 108.406C63.1522 108.406 68.7694 106.308 71.6275 100.751C74.4857 95.1939 73.5023 88.2812 73.5023 88.2812C73.5023 88.2812 67.8851 90.3787 65.0269 95.936Z" fill="#3F3D56"/>
<path d="M56.735 156.358L57.1516 156.023C55.6834 153.485 54.8818 150.485 54.8485 147.404C54.8602 142.897 56.7191 138.728 58.5169 134.696C58.8506 133.947 59.1832 133.201 59.5031 132.456C60.8461 129.416 61.9163 126.216 62.6962 122.909C65.4847 110.567 62.7392 96.0061 55.3522 83.958C49.4921 74.4004 40.7564 66.0428 28.6463 58.4075L28.4111 58.9366C40.4523 66.5283 49.132 74.8285 54.9462 84.3112C62.2444 96.2141 64.9601 110.585 62.2107 122.754C61.4399 126.02 60.3824 129.181 59.0556 132.184C58.7367 132.926 58.4053 133.669 58.0729 134.415C56.2465 138.511 54.3579 142.747 54.3458 147.402C54.3791 150.604 55.2107 153.721 56.735 156.358Z" fill="#3F3D56"/>
<path d="M4.77547 59.1941C7.41289 59.1941 9.55094 56.6477 9.55094 53.5066C9.55094 50.3655 7.41289 47.8191 4.77547 47.8191C2.13805 47.8191 0 50.3655 0 53.5066C0 56.6477 2.13805 59.1941 4.77547 59.1941Z" fill="#3F3D56"/>
<path d="M71.9994 145.828L42.0222 142.853V90.4896L71.9994 88.7046V145.828Z" fill="#7EB685"/>
<path d="M146.936 145.828L176.913 142.853V90.4896L146.936 88.7046V145.828Z" fill="#7EB685"/>
<path d="M119.888 110.326C118.996 109.408 117.897 108.824 116.728 108.647C115.558 108.47 114.372 108.708 113.315 109.331C112.398 109.859 111.411 110.195 110.398 110.325C110.373 107.711 110.776 105.117 111.584 102.687L111.716 102.279H109.955L109.904 102.499C109.708 103.359 109.553 104.231 109.441 105.111C109.346 104.729 109.222 104.359 109.072 104.003C107.836 101.085 104.981 99.8911 104.86 99.8418L104.616 99.7424L104.539 100.035C104.5 100.18 103.609 103.624 104.844 106.542C105.729 108.632 107.444 109.837 108.391 110.371C107.192 110.279 106.02 109.906 104.943 109.272C104.271 108.86 103.516 108.682 102.763 108.757C102.01 108.833 101.29 109.16 100.686 109.7C97.3963 112.677 95.5095 117.042 95.5095 121.674C95.5095 127.759 98.8183 133.332 103.939 135.871C104.401 136.099 104.896 136.216 105.396 136.215C106.091 136.216 106.773 135.993 107.37 135.571C108.164 135.021 109.065 134.73 109.983 134.728C110.902 134.726 111.804 135.012 112.6 135.558C113.114 135.92 113.692 136.134 114.288 136.184C114.884 136.234 115.481 136.118 116.033 135.846C121.124 133.297 124.414 127.734 124.414 121.674C124.414 117.336 122.806 113.306 119.888 110.326ZM110.339 102.878H110.986C110.258 105.199 109.888 107.657 109.891 110.134H109.776C109.62 107.695 109.811 105.242 110.339 102.878ZM105.293 106.273C104.355 104.057 104.767 101.417 104.948 100.526C105.658 100.88 107.683 102.053 108.623 104.272C109.561 106.487 109.15 109.128 108.968 110.019C108.258 109.663 106.231 108.488 105.293 106.273ZM115.838 135.294C115.359 135.531 114.839 135.631 114.322 135.587C113.804 135.543 113.302 135.357 112.855 135.042C111.981 134.442 110.991 134.127 109.982 134.129C108.974 134.132 107.984 134.452 107.113 135.056C106.667 135.372 106.166 135.56 105.649 135.606C105.131 135.651 104.612 135.553 104.132 135.318C99.1995 132.872 96.0122 127.517 96.0122 121.674C96.0122 117.23 97.8266 113.04 100.99 110.177C101.597 109.631 102.337 109.337 103.098 109.339C103.659 109.338 104.213 109.498 104.713 109.804C106.09 110.587 107.594 110.998 109.12 111.009C110.646 111.02 112.154 110.63 113.539 109.867C114.507 109.296 115.594 109.079 116.665 109.241C117.736 109.404 118.744 109.939 119.56 110.78C122.366 113.645 123.911 117.514 123.911 121.674C123.911 127.493 120.742 132.839 115.838 135.294Z" fill="white"/>
<path d="M56.9286 104.668V103.966H57.1631V101.776C57.164 101.614 57.1274 101.454 57.0574 101.315C56.9873 101.176 56.8865 101.062 56.7659 100.987C55.7285 100.342 54.6137 100.343 53.4523 100.99C53.3241 101.062 53.2159 101.177 53.1401 101.32C53.0644 101.463 53.0243 101.628 53.0245 101.797V103.965H53.259V104.602C52.3958 104.89 51.6357 105.507 51.0955 106.359C50.5552 107.211 50.2646 108.251 50.2681 109.319V114.056L50.7148 114.234L50.2681 114.588V116.012L50.7148 116.189L50.2681 116.544V117.968L50.7148 118.145L50.2681 118.5V129.343C50.2689 130.188 50.5514 130.999 51.0535 131.597C51.5556 132.195 52.2364 132.532 52.9466 132.533H56.8952C57.6038 132.532 58.2831 132.196 58.7841 131.6C59.2851 131.003 59.5669 130.194 59.5677 129.35V118.5L59.121 118.145L59.5677 117.968V116.544L59.121 116.189L59.5677 116.012V114.588L59.121 114.234L59.5677 114.056V109.074C59.5647 108.105 59.3093 107.16 58.8366 106.371C58.3639 105.582 57.6972 104.987 56.9286 104.668ZM53.6651 101.532C54.6917 100.961 55.6301 100.956 56.5332 101.518C56.5721 101.543 56.6044 101.58 56.6268 101.626C56.6492 101.671 56.6609 101.723 56.6605 101.776V102.948H53.5272V101.797C53.5268 101.742 53.5395 101.688 53.5639 101.641C53.5883 101.594 53.6234 101.556 53.6651 101.532ZM59.065 113.625L57.987 114.053L59.065 114.909V115.58L57.987 116.008L59.065 116.864V117.536L57.987 117.964L59.065 118.82V129.35C59.0644 130.035 58.8355 130.692 58.4288 131.176C58.022 131.661 57.4705 131.933 56.8952 131.934H52.9466C52.3697 131.933 51.8166 131.66 51.4087 131.174C51.0009 130.688 50.7714 130.03 50.7708 129.343V118.82L51.8488 117.964L50.7708 117.536V116.864L51.8488 116.008L50.7708 115.58V114.909L51.8488 114.053L50.7708 113.625V109.319C50.7676 108.345 51.0428 107.4 51.551 106.638C52.0593 105.875 52.7703 105.342 53.5671 105.125L53.7617 105.072V103.966H56.4259V105.112L56.6072 105.175C57.3148 105.423 57.9362 105.936 58.379 106.639C58.8218 107.342 59.0624 108.196 59.065 109.074V113.625Z" fill="white"/>
<path d="M175.075 112.867L173.809 112.565L174.107 111.856L173.527 111.717L173.627 110.998L172.993 110.872V110.191L172.479 110.016L172.967 109.289H172.12L172.297 108.763L171.671 108.639L171.883 107.751H171.206V106.924H170.954C170.162 106.924 169.721 108.044 169.576 108.492C165.204 109.4 152.512 119.871 151.063 121.075C150.461 120.842 149.569 121.387 149.382 121.509L149.087 121.7L149.513 122.207L149.386 122.66L150.167 123.009L149.996 123.518L150.488 124.006L150.046 124.401L150.711 124.877L150.594 125.571L151.337 125.698V126.393L151.768 126.496L151.553 127.393H152.032V128.103H152.499L152.711 128.859L152.929 128.807C153.434 128.687 153.867 127.853 154.037 127.484C158.247 126.589 171.244 115.698 172.51 114.631C173.987 114.842 174.529 114.372 174.587 114.317L174.828 114.088L174.254 113.518L175.075 112.867ZM172.477 114.023L172.379 114.007L172.299 114.076C172.155 114.197 157.901 126.225 153.837 126.916L153.707 126.938L153.648 127.078C153.492 127.457 153.281 127.799 153.026 128.091L152.862 127.504H152.535V126.795H152.219L152.401 126.036L151.84 125.902V125.179L151.192 125.068L151.274 124.58L150.945 124.346L151.298 124.031L150.598 123.337L150.824 122.663L150.016 122.302L150.088 122.045L149.932 121.859C150.31 121.672 150.766 121.533 150.962 121.673L151.103 121.773L151.236 121.662C151.379 121.543 165.536 109.749 169.796 109.057L169.956 109.031L170.003 108.849C170.076 108.566 170.336 107.851 170.703 107.606V108.35H171.217L171.033 109.119L171.598 109.231L171.377 109.888H171.921L171.614 110.344L172.491 110.642V111.38L173.049 111.49L172.951 112.191L173.363 112.289L173.065 112.999L173.786 113.17L173.415 113.465L173.948 113.995C173.464 114.112 172.965 114.122 172.477 114.023Z" fill="white"/>
<path d="M109.468 170.549C113.493 170.549 116.757 166.663 116.757 161.868C116.757 157.074 113.493 153.188 109.468 153.188C105.442 153.188 102.179 157.074 102.179 161.868C102.179 166.663 105.442 170.549 109.468 170.549Z" fill="#7EB685"/>
<path d="M114.057 161.011H110.187V156.403H108.748V161.011H104.878V162.726H108.748V167.334H110.187V162.726H114.057V161.011Z" fill="white"/>
<path d="M132.457 162.168L128.687 160.073V161.27H119.89V163.066H128.687V164.263L132.457 162.168Z" fill="white"/>
<path d="M86.479 162.168L90.2491 160.073V161.27H99.046V163.066H90.2491V164.263L86.479 162.168Z" fill="white"/>
<path d="M201.584 231.017H17.3516V231.616H201.584V231.017Z" fill="#3F3D56"/>
<path d="M133.596 47.8188H85.3391V48.4175H133.596V47.8188Z" fill="white"/>
<path d="M133.713 211.26H85.4558V211.859H133.713V211.26Z" fill="white"/>
<path d="M211.252 152.14L209.995 157.827C209.995 157.827 205.471 169.801 209.995 170.4C214.519 170.998 214.771 154.834 214.771 154.834L211.252 152.14Z" fill="#A0616A"/>
<path d="M219.043 111.13L209.995 153.637C209.995 153.637 213.514 154.834 215.273 156.331L219.043 111.13Z" fill="#D0CDE1"/>
<path d="M247.445 143.459L249.958 189.857C249.958 189.857 255.99 208.117 255.739 225.479C255.739 225.479 253.477 232.364 255.236 233.561C256.996 234.759 258.001 235.657 256.996 236.555C255.99 237.453 255.236 239.548 255.99 240.147C256.744 240.745 256.996 241.643 256.744 241.643H249.204C249.204 241.643 250.712 237.153 248.45 235.956C246.188 234.759 247.445 231.765 247.445 231.765L230.605 173.094L217.284 226.976C217.284 226.976 219.546 228.772 217.787 229.67C216.027 230.568 215.273 228.772 216.027 230.568C216.781 232.364 215.776 233.262 215.776 233.561C215.776 233.861 208.236 232.663 208.236 232.663C208.236 232.663 212.006 228.772 210.246 227.874C208.487 226.976 207.733 226.078 208.236 225.479C208.738 224.88 210.749 219.193 210.749 219.193C210.749 219.193 211.754 197.64 212.006 196.742C212.257 195.844 212.006 191.653 212.006 189.558C212.006 187.462 211.754 179.081 212.508 176.985C213.262 174.89 214.016 149.147 218.038 146.153C222.059 143.16 247.445 143.459 247.445 143.459Z" fill="#2F2E41"/>
<path d="M215.524 232.064C215.524 232.064 220.551 244.338 217.033 245.834C213.514 247.331 208.99 246.134 207.984 247.93C206.979 249.726 195.92 251.821 195.669 247.331C195.417 242.841 207.733 234.459 207.733 234.459L209.337 231.383L215.524 232.064Z" fill="#2F2E41"/>
<path d="M256.242 241.045C256.242 241.045 261.269 253.318 257.75 254.814C254.231 256.311 249.707 255.114 248.702 256.91C247.696 258.706 236.637 260.801 236.386 256.311C236.135 251.821 248.45 243.439 248.45 243.439L250.054 240.363L256.242 241.045Z" fill="#2F2E41"/>
<path d="M232.993 87.0328C237.574 87.0328 241.287 82.6101 241.287 77.1544C241.287 71.6988 237.574 67.2761 232.993 67.2761C228.412 67.2761 224.698 71.6988 224.698 77.1544C224.698 82.6101 228.412 87.0328 232.993 87.0328Z" fill="#A0616A"/>
<path d="M238.648 82.3931L237.642 91.074L230.102 97.9589L228.092 94.6661V83.2911L238.648 82.3931Z" fill="#A0616A"/>
<path d="M226.835 93.4687C226.835 93.4687 234.627 94.3667 238.648 91.074L246.691 147.65C246.691 147.65 218.289 150.344 217.033 148.548V130.887L222.06 102.15L226.835 93.4687Z" fill="#3F3D56"/>
<path d="M237.956 88.3689L240.659 91.0738C240.659 91.0738 251.718 93.1692 250.964 96.7613L247.947 139.268L248.953 153.637C248.953 153.637 240.407 150.942 233.872 153.637C227.338 156.331 232.529 95.7426 232.529 95.7426C232.529 95.7426 238.52 89.2561 237.956 88.3689Z" fill="#D0CDE1"/>
<path d="M228.092 91.6455C228.092 91.6455 220.049 98.5575 219.043 103.048C218.038 107.538 214.771 154.834 214.771 154.834C214.771 154.834 216.279 153.936 217.033 155.433C217.787 156.929 229.348 94.0131 228.092 91.6455Z" fill="#D0CDE1"/>
<path d="M250.209 154.235L248.408 161.237C248.408 161.237 247.947 174.291 241.915 172.495C235.883 170.699 243.675 155.433 243.675 155.433L245.434 152.14L250.209 154.235Z" fill="#A0616A"/>
<path d="M224.702 76.7241C224.702 76.7241 223.805 75.12 224.15 73.3926C224.356 72.4118 224.438 71.3997 224.392 70.3901C224.392 70.3901 225.117 67.5932 225.842 66.0302C226.567 64.4673 226.222 63.8092 228.501 63.3156C230.781 62.8221 229.848 59.2849 235.857 63.11C236.06 63.4471 236.342 63.7052 236.668 63.8516C236.993 63.998 237.348 64.0262 237.687 63.9326C238.931 63.6447 239.38 65.7012 239.38 65.7012C239.38 65.7012 240.208 65.1254 240.519 65.948C240.83 66.7706 243.046 65.4543 243.046 71.0069C243.046 76.5595 240.524 81.5194 240.524 81.5194C240.524 81.5194 240.709 72.1792 236.6 71.2332C232.49 70.2872 228.07 67.5315 226.999 71.0687C226.421 73.054 225.65 74.952 224.702 76.7241Z" fill="#2F2E41"/>
<path d="M240.615 78.9448C241.062 78.9448 241.425 78.3685 241.425 77.6576C241.425 76.9467 241.062 76.3704 240.615 76.3704C240.167 76.3704 239.804 76.9467 239.804 77.6576C239.804 78.3685 240.167 78.9448 240.615 78.9448Z" fill="#A0616A"/>
<path d="M248.953 94.6661C248.953 94.6661 252.974 93.4687 254.231 101.551C255.488 109.633 256.996 132.683 256.996 132.683L250.963 156.929C250.963 156.929 244.931 153.038 243.675 153.637L248.421 132.587L244.429 111.13C244.429 111.13 247.947 94.6661 248.953 94.6661Z" fill="#D0CDE1"/>
<path opacity="0.15" d="M243.106 111.539L248.384 132.493L243.106 153.747L246.122 132.493L243.106 111.539Z" fill="black"/>
</g>
<defs>
<clipPath id="clip0_90_85">
<rect width="259" height="259" fill="white"/>
</clipPath>
</defs>
</svg>
